<svg width="56" height="56" viewBox="0 0 56 56" fill="none" xmlns="http://www.w3.org/2000/svg">
<rect x="0.5" y="0.5" width="55" height="55" rx="11.5" fill="#1E5542"/>
<g clip-path="url(#clip0_699_804)">
<path d="M23.6662 23.3332H32.3329C32.4289 23.3669 32.516 23.4221 32.5873 23.4946C32.6587 23.5671 32.7126 23.6549 32.7447 23.7515C32.7769 23.848 32.7866 23.9506 32.773 24.0514C32.7594 24.1523 32.7229 24.2486 32.6662 24.3332L29.3329 27.9999V32.6665L26.6663 30.6665V27.9999L23.3329 24.3332C23.2763 24.2486 23.2398 24.1523 23.2262 24.0514C23.2126 23.9506 23.2223 23.848 23.2544 23.7515C23.2866 23.6549 23.3404 23.5671 23.4118 23.4946C23.4832 23.4221 23.5702 23.3669 23.6662 23.3332Z" stroke="white" stroke-width="1.25" stroke-linecap="round" stroke-linejoin="round"/>
</g>
<rect x="0.5" y="0.5" width="55" height="55" rx="11.5" stroke="#1E5542"/>
<defs>
<clipPath id="clip0_699_804">
<rect width="16" height="16" fill="white" transform="translate(20 20)"/>
</clipPath>
</defs>
</svg>
