<svg width="312" height="69" viewBox="0 0 312 69" fill="none" xmlns="http://www.w3.org/2000/svg">
<mask id="mask0_705_1008" style="mask-type:alpha" maskUnits="userSpaceOnUse" x="0" y="0" width="137" height="29">
<path d="M35.7944 10.5682C37.7821 10.5682 39.3763 11.2238 40.5772 12.5352C41.7781 13.826 42.3786 15.6085 42.3786 17.8828V27.9021H37.0988V18.5897C37.0988 17.4423 36.7986 16.551 36.1981 15.9159C35.5977 15.2807 34.7902 14.9631 33.7757 14.9631C32.7611 14.9631 31.9536 15.2807 31.3532 15.9159C30.7527 16.551 30.4525 17.4423 30.4525 18.5897V27.9021H25.1417V5.15903H30.4525V13.0576C30.9908 12.2995 31.7259 11.6951 32.6576 11.2443C33.5893 10.7936 34.6349 10.5682 35.7944 10.5682Z" fill="#393858"/>
<path d="M62.4052 19.0507C62.4052 19.5425 62.3742 20.0547 62.3121 20.5874H50.2929C50.3757 21.6529 50.7173 22.4724 51.3177 23.0461C51.9389 23.5993 52.6946 23.8759 53.5849 23.8759C54.91 23.8759 55.8314 23.3227 56.349 22.2163H62.0015C61.7116 23.3432 61.1836 24.3574 60.4176 25.259C59.6722 26.1605 58.7301 26.8674 57.5913 27.3796C56.4526 27.8918 55.1792 28.1479 53.7713 28.1479C52.0735 28.1479 50.562 27.7894 49.2369 27.0723C47.9118 26.3551 46.8765 25.3307 46.1312 23.9989C45.3858 22.6671 45.0131 21.1099 45.0131 19.3273C45.0131 17.5448 45.3754 15.9876 46.1001 14.6558C46.8455 13.324 47.8807 12.2995 49.2058 11.5824C50.531 10.8653 52.0528 10.5067 53.7713 10.5067C55.4484 10.5067 56.9391 10.855 58.2435 11.5517C59.548 12.2483 60.5625 13.242 61.2872 14.5329C62.0325 15.8237 62.4052 17.3296 62.4052 19.0507ZM56.9702 17.6677C56.9702 16.7662 56.6596 16.0491 56.0385 15.5163C55.4173 14.9836 54.6409 14.7173 53.7092 14.7173C52.8189 14.7173 52.0631 14.9734 51.442 15.4856C50.8415 15.9978 50.4688 16.7252 50.3239 17.6677H56.9702Z" fill="#393858"/>
<path d="M64.151 19.2966C64.151 17.5345 64.4823 15.9876 65.1448 14.6558C65.8281 13.324 66.7495 12.2995 67.9089 11.5824C69.0684 10.8653 70.3625 10.5067 71.7911 10.5067C73.0127 10.5067 74.079 10.7526 74.99 11.2443C75.9218 11.7361 76.6361 12.3815 77.133 13.1806V10.7526H82.4438V27.9021H77.133V25.4741C76.6154 26.2732 75.8907 26.9186 74.959 27.4103C74.048 27.9021 72.9817 28.1479 71.7601 28.1479C70.3521 28.1479 69.0684 27.7894 67.9089 27.0723C66.7495 26.3347 65.8281 25.2999 65.1448 23.9681C64.4823 22.6159 64.151 21.0587 64.151 19.2966ZM77.133 19.3273C77.133 18.016 76.7603 16.9813 76.0149 16.2232C75.2903 15.4651 74.3999 15.0861 73.344 15.0861C72.288 15.0861 71.3874 15.4651 70.642 16.2232C69.9173 16.9608 69.555 17.9853 69.555 19.2966C69.555 20.6079 69.9173 21.6529 70.642 22.4315C71.3874 23.1896 72.288 23.5686 73.344 23.5686C74.3999 23.5686 75.2903 23.1896 76.0149 22.4315C76.7603 21.6734 77.133 20.6386 77.133 19.3273Z" fill="#393858"/>
<path d="M91.5968 13.6108C92.2179 12.6683 92.9943 11.9307 93.9261 11.398C94.8578 10.8448 95.893 10.5682 97.0318 10.5682V16.131H95.5721C94.247 16.131 93.2532 16.4179 92.5906 16.9916C91.928 17.5448 91.5968 18.5283 91.5968 19.942V27.9021H86.2859V10.7526H91.5968V13.6108Z" fill="#393858"/>
<path d="M108.266 15.1168H105.409V27.9021H100.098V15.1168H98.1727V10.7526H100.098V10.2609C100.098 8.15046 100.709 6.5523 101.931 5.46637C103.152 4.35995 104.943 3.80674 107.304 3.80674C107.697 3.80674 107.987 3.81699 108.173 3.83747V8.29388C107.159 8.23242 106.444 8.37584 106.03 8.72416C105.616 9.07247 105.409 9.69739 105.409 10.5989V10.7526H108.266V15.1168Z" fill="#393858"/>
<path d="M127.874 10.7526V27.9021H122.564V25.5663C122.025 26.3244 121.29 26.9391 120.359 27.4103C119.448 27.8611 118.433 28.0865 117.315 28.0865C115.99 28.0865 114.82 27.7996 113.805 27.2259C112.791 26.6317 112.004 25.7814 111.445 24.675C110.886 23.5686 110.607 22.2675 110.607 20.7718V10.7526H115.886V20.0649C115.886 21.2123 116.187 22.1036 116.787 22.7388C117.387 23.374 118.195 23.6915 119.209 23.6915C120.245 23.6915 121.063 23.374 121.663 22.7388C122.263 22.1036 122.564 21.2123 122.564 20.0649V10.7526H127.874Z" fill="#393858"/>
<path d="M137 5.15903V27.9021H131.689V5.15903H137Z" fill="#393858"/>
<path d="M13.9533 27.7639C6.24712 27.7639 3.36849e-07 21.5818 0 13.9559C-3.36849e-07 6.32998 6.24712 0.14795 13.9533 0.14795L20.7049 0.147949V27.7639H13.9533Z" fill="#FFB0B0"/>
<path d="M13.7283 20.6372C9.87517 20.6372 6.75161 17.5462 6.75161 13.7332C6.75161 9.92024 9.87516 6.82922 13.7283 6.82922H20.7049L20.7049 20.6372H13.7283Z" fill="white"/>
</mask>
<g mask="url(#mask0_705_1008)">
<path d="M-5.17627 -2.04736H148.632V36.0041H-5.17627V-2.04736Z" fill="white"/>
</g>
<path d="M6.65527 13.6856C6.65527 9.84627 9.76766 6.73389 13.607 6.73389H20.705V20.6373H13.607C9.76766 20.6373 6.65527 17.5249 6.65527 13.6856V13.6856Z" fill="#312E33"/>
<path d="M2.352 51.3899V61.1479H1.078V51.3899H2.352ZM13.7493 53.3359C14.3466 53.3359 14.8786 53.4619 15.3453 53.7139C15.812 53.9566 16.1806 54.3253 16.4513 54.8199C16.722 55.3146 16.8573 55.9166 16.8573 56.6259V61.1479H15.5973V56.8079C15.5973 56.0426 15.406 55.4593 15.0233 55.0579C14.65 54.6473 14.1413 54.4419 13.4973 54.4419C12.8346 54.4419 12.3073 54.6566 11.9153 55.0859C11.5233 55.5059 11.3273 56.1173 11.3273 56.9199V61.1479H10.0673V56.8079C10.0673 56.0426 9.87598 55.4593 9.49331 55.0579C9.11998 54.6473 8.61131 54.4419 7.96731 54.4419C7.30465 54.4419 6.77731 54.6566 6.38531 55.0859C5.99331 55.5059 5.79731 56.1173 5.79731 56.9199V61.1479H4.52331V53.4759H5.79731V54.5819C6.04931 54.1806 6.38531 53.8726 6.80531 53.6579C7.23465 53.4433 7.70598 53.3359 8.21931 53.3359C8.86331 53.3359 9.43265 53.4806 9.92731 53.7699C10.422 54.0593 10.7906 54.4839 11.0333 55.0439C11.248 54.5026 11.6026 54.0826 12.0973 53.7839C12.592 53.4853 13.1426 53.3359 13.7493 53.3359ZM20.2211 54.8899C20.4731 54.4513 20.8465 54.0873 21.3411 53.7979C21.8451 53.4993 22.4285 53.3499 23.0911 53.3499C23.7725 53.3499 24.3885 53.5133 24.9391 53.8399C25.4991 54.1666 25.9378 54.6286 26.2551 55.2259C26.5725 55.8139 26.7311 56.4999 26.7311 57.2839C26.7311 58.0586 26.5725 58.7493 26.2551 59.3559C25.9378 59.9626 25.4991 60.4339 24.9391 60.7699C24.3885 61.1059 23.7725 61.2739 23.0911 61.2739C22.4378 61.2739 21.8591 61.1293 21.3551 60.8399C20.8605 60.5413 20.4825 60.1726 20.2211 59.7339V64.7879H18.9471V53.4759H20.2211V54.8899ZM25.4291 57.2839C25.4291 56.7053 25.3125 56.2013 25.0791 55.7719C24.8458 55.3426 24.5285 55.0159 24.1271 54.7919C23.7351 54.5679 23.3011 54.4559 22.8251 54.4559C22.3585 54.4559 21.9245 54.5726 21.5231 54.8059C21.1311 55.0299 20.8138 55.3613 20.5711 55.7999C20.3378 56.2293 20.2211 56.7286 20.2211 57.2979C20.2211 57.8766 20.3378 58.3853 20.5711 58.8239C20.8138 59.2533 21.1311 59.5846 21.5231 59.8179C21.9245 60.0419 22.3585 60.1539 22.8251 60.1539C23.3011 60.1539 23.7351 60.0419 24.1271 59.8179C24.5285 59.5846 24.8458 59.2533 25.0791 58.8239C25.3125 58.3853 25.4291 57.8719 25.4291 57.2839ZM29.6821 54.7219C29.9061 54.2833 30.2234 53.9426 30.6341 53.6999C31.0541 53.4573 31.5627 53.3359 32.1601 53.3359V54.6519H31.8241C30.3961 54.6519 29.6821 55.4266 29.6821 56.9759V61.1479H28.4081V53.4759H29.6821V54.7219ZM36.9767 61.2739C36.2581 61.2739 35.6047 61.1106 35.0167 60.7839C34.4381 60.4573 33.9807 59.9953 33.6447 59.3979C33.3181 58.7913 33.1547 58.0913 33.1547 57.2979C33.1547 56.5139 33.3227 55.8233 33.6587 55.2259C34.0041 54.6193 34.4707 54.1573 35.0587 53.8399C35.6467 53.5133 36.3047 53.3499 37.0327 53.3499C37.7607 53.3499 38.4187 53.5133 39.0067 53.8399C39.5947 54.1573 40.0567 54.6146 40.3927 55.2119C40.7381 55.8093 40.9107 56.5046 40.9107 57.2979C40.9107 58.0913 40.7334 58.7913 40.3787 59.3979C40.0334 59.9953 39.5621 60.4573 38.9647 60.7839C38.3674 61.1106 37.7047 61.2739 36.9767 61.2739ZM36.9767 60.1539C37.4341 60.1539 37.8634 60.0466 38.2647 59.8319C38.6661 59.6173 38.9881 59.2953 39.2307 58.8659C39.4827 58.4366 39.6087 57.9139 39.6087 57.2979C39.6087 56.6819 39.4874 56.1593 39.2447 55.7299C39.0021 55.3006 38.6847 54.9833 38.2927 54.7779C37.9007 54.5633 37.4761 54.4559 37.0187 54.4559C36.5521 54.4559 36.1227 54.5633 35.7307 54.7779C35.3481 54.9833 35.0401 55.3006 34.8067 55.7299C34.5734 56.1593 34.4567 56.6819 34.4567 57.2979C34.4567 57.9233 34.5687 58.4506 34.7927 58.8799C35.0261 59.3093 35.3341 59.6313 35.7167 59.8459C36.0994 60.0513 36.5194 60.1539 36.9767 60.1539ZM45.4418 59.9719L47.8218 53.4759H49.1798L46.1698 61.1479H44.6858L41.6758 53.4759H43.0478L45.4418 59.9719ZM57.4335 57.0179C57.4335 57.2606 57.4195 57.5173 57.3915 57.7879H51.2595C51.3061 58.5439 51.5628 59.1366 52.0295 59.5659C52.5055 59.9859 53.0795 60.1959 53.7515 60.1959C54.3021 60.1959 54.7595 60.0699 55.1235 59.8179C55.4968 59.5566 55.7581 59.2113 55.9075 58.7819H57.2795C57.0741 59.5193 56.6635 60.1213 56.0475 60.5879C55.4315 61.0453 54.6661 61.2739 53.7515 61.2739C53.0235 61.2739 52.3701 61.1106 51.7915 60.7839C51.2221 60.4573 50.7741 59.9953 50.4475 59.3979C50.1208 58.7913 49.9575 58.0913 49.9575 57.2979C49.9575 56.5046 50.1161 55.8093 50.4335 55.2119C50.7508 54.6146 51.1941 54.1573 51.7635 53.8399C52.3421 53.5133 53.0048 53.3499 53.7515 53.3499C54.4795 53.3499 55.1235 53.5086 55.6835 53.8259C56.2435 54.1433 56.6728 54.5819 56.9715 55.1419C57.2795 55.6926 57.4335 56.3179 57.4335 57.0179ZM56.1175 56.7519C56.1175 56.2666 56.0101 55.8513 55.7955 55.5059C55.5808 55.1513 55.2868 54.8853 54.9135 54.7079C54.5495 54.5213 54.1435 54.4279 53.6955 54.4279C53.0515 54.4279 52.5008 54.6333 52.0435 55.0439C51.5955 55.4546 51.3388 56.0239 51.2735 56.7519H56.1175ZM69.4555 53.4759L64.8355 64.7599H63.5195L65.0315 61.0639L61.9375 53.4759H63.3515L65.7595 59.6919L68.1395 53.4759H69.4555ZM74.0822 61.2739C73.3635 61.2739 72.7102 61.1106 72.1222 60.7839C71.5435 60.4573 71.0862 59.9953 70.7502 59.3979C70.4235 58.7913 70.2602 58.0913 70.2602 57.2979C70.2602 56.5139 70.4282 55.8233 70.7642 55.2259C71.1095 54.6193 71.5762 54.1573 72.1642 53.8399C72.7522 53.5133 73.4102 53.3499 74.1382 53.3499C74.8662 53.3499 75.5242 53.5133 76.1122 53.8399C76.7002 54.1573 77.1622 54.6146 77.4982 55.2119C77.8435 55.8093 78.0162 56.5046 78.0162 57.2979C78.0162 58.0913 77.8389 58.7913 77.4842 59.3979C77.1389 59.9953 76.6675 60.4573 76.0702 60.7839C75.4729 61.1106 74.8102 61.2739 74.0822 61.2739ZM74.0822 60.1539C74.5395 60.1539 74.9689 60.0466 75.3702 59.8319C75.7715 59.6173 76.0935 59.2953 76.3362 58.8659C76.5882 58.4366 76.7142 57.9139 76.7142 57.2979C76.7142 56.6819 76.5929 56.1593 76.3502 55.7299C76.1075 55.3006 75.7902 54.9833 75.3982 54.7779C75.0062 54.5633 74.5815 54.4559 74.1242 54.4559C73.6575 54.4559 73.2282 54.5633 72.8362 54.7779C72.4535 54.9833 72.1455 55.3006 71.9122 55.7299C71.6789 56.1593 71.5622 56.6819 71.5622 57.2979C71.5622 57.9233 71.6742 58.4506 71.8982 58.8799C72.1315 59.3093 72.4395 59.6313 72.8222 59.8459C73.2049 60.0513 73.6249 60.1539 74.0822 60.1539ZM86.4953 53.4759V61.1479H85.2213V60.0139C84.9786 60.4059 84.6379 60.7139 84.1993 60.9379C83.7699 61.1526 83.2939 61.2599 82.7713 61.2599C82.1739 61.2599 81.6373 61.1386 81.1613 60.8959C80.6853 60.6439 80.3073 60.2706 80.0273 59.7759C79.7566 59.2813 79.6213 58.6793 79.6213 57.9699V53.4759H80.8813V57.8019C80.8813 58.5579 81.0726 59.1413 81.4553 59.5519C81.8379 59.9533 82.3606 60.1539 83.0233 60.1539C83.7046 60.1539 84.2413 59.9439 84.6333 59.5239C85.0253 59.1039 85.2213 58.4926 85.2213 57.6899V53.4759H86.4953ZM89.9204 54.7219C90.1444 54.2833 90.4617 53.9426 90.8724 53.6999C91.2924 53.4573 91.801 53.3359 92.3984 53.3359V54.6519H92.0624C90.6344 54.6519 89.9204 55.4266 89.9204 56.9759V61.1479H88.6464V53.4759H89.9204V54.7219ZM107.821 53.4759L105.427 61.1479H104.111L102.263 55.0579L100.415 61.1479H99.0994L96.6914 53.4759H97.9934L99.7574 59.9159L101.661 53.4759H102.963L104.825 59.9299L106.561 53.4759H107.821ZM116.086 57.0179C116.086 57.2606 116.072 57.5173 116.044 57.7879H109.912C109.958 58.5439 110.215 59.1366 110.682 59.5659C111.158 59.9859 111.732 60.1959 112.404 60.1959C112.954 60.1959 113.412 60.0699 113.776 59.8179C114.149 59.5566 114.41 59.2113 114.56 58.7819H115.932C115.726 59.5193 115.316 60.1213 114.7 60.5879C114.084 61.0453 113.318 61.2739 112.404 61.2739C111.676 61.2739 111.022 61.1106 110.444 60.7839C109.874 60.4573 109.426 59.9953 109.1 59.3979C108.773 58.7913 108.61 58.0913 108.61 57.2979C108.61 56.5046 108.768 55.8093 109.086 55.2119C109.403 54.6146 109.846 54.1573 110.416 53.8399C110.994 53.5133 111.657 53.3499 112.404 53.3499C113.132 53.3499 113.776 53.5086 114.336 53.8259C114.896 54.1433 115.325 54.5819 115.624 55.1419C115.932 55.6926 116.086 56.3179 116.086 57.0179ZM114.77 56.7519C114.77 56.2666 114.662 55.8513 114.448 55.5059C114.233 55.1513 113.939 54.8853 113.566 54.7079C113.202 54.5213 112.796 54.4279 112.348 54.4279C111.704 54.4279 111.153 54.6333 110.696 55.0439C110.248 55.4546 109.991 56.0239 109.926 56.7519H114.77ZM119.041 50.7879V61.1479H117.767V50.7879H119.041ZM122.487 50.7879V61.1479H121.213V50.7879H122.487ZM129.978 55.4779V56.5559H124.392V55.4779H129.978ZM133.643 54.9039C133.904 54.4466 134.287 54.0733 134.791 53.7839C135.295 53.4946 135.869 53.3499 136.513 53.3499C137.204 53.3499 137.824 53.5133 138.375 53.8399C138.926 54.1666 139.36 54.6286 139.677 55.2259C139.994 55.8139 140.153 56.4999 140.153 57.2839C140.153 58.0586 139.994 58.7493 139.677 59.3559C139.36 59.9626 138.921 60.4339 138.361 60.7699C137.81 61.1059 137.194 61.2739 136.513 61.2739C135.85 61.2739 135.267 61.1293 134.763 60.8399C134.268 60.5506 133.895 60.1819 133.643 59.7339V61.1479H132.369V50.7879H133.643V54.9039ZM138.851 57.2839C138.851 56.7053 138.734 56.2013 138.501 55.7719C138.268 55.3426 137.95 55.0159 137.549 54.7919C137.157 54.5679 136.723 54.4559 136.247 54.4559C135.78 54.4559 135.346 54.5726 134.945 54.8059C134.553 55.0299 134.236 55.3613 133.993 55.7999C133.76 56.2293 133.643 56.7286 133.643 57.2979C133.643 57.8766 133.76 58.3853 133.993 58.8239C134.236 59.2533 134.553 59.5846 134.945 59.8179C135.346 60.0419 135.78 60.1539 136.247 60.1539C136.723 60.1539 137.157 60.0419 137.549 59.8179C137.95 59.5846 138.268 59.2533 138.501 58.8239C138.734 58.3853 138.851 57.8719 138.851 57.2839ZM148.83 57.0179C148.83 57.2606 148.816 57.5173 148.788 57.7879H142.656C142.703 58.5439 142.959 59.1366 143.426 59.5659C143.902 59.9859 144.476 60.1959 145.148 60.1959C145.699 60.1959 146.156 60.0699 146.52 59.8179C146.893 59.5566 147.155 59.2113 147.304 58.7819H148.676C148.471 59.5193 148.06 60.1213 147.444 60.5879C146.828 61.0453 146.063 61.2739 145.148 61.2739C144.42 61.2739 143.767 61.1106 143.188 60.7839C142.619 60.4573 142.171 59.9953 141.844 59.3979C141.517 58.7913 141.354 58.0913 141.354 57.2979C141.354 56.5046 141.513 55.8093 141.83 55.2119C142.147 54.6146 142.591 54.1573 143.16 53.8399C143.739 53.5133 144.401 53.3499 145.148 53.3499C145.876 53.3499 146.52 53.5086 147.08 53.8259C147.64 54.1433 148.069 54.5819 148.368 55.1419C148.676 55.6926 148.83 56.3179 148.83 57.0179ZM147.514 56.7519C147.514 56.2666 147.407 55.8513 147.192 55.5059C146.977 55.1513 146.683 54.8853 146.31 54.7079C145.946 54.5213 145.54 54.4279 145.092 54.4279C144.448 54.4279 143.897 54.6333 143.44 55.0439C142.992 55.4546 142.735 56.0239 142.67 56.7519H147.514ZM151.17 52.2299C150.927 52.2299 150.722 52.1459 150.554 51.9779C150.386 51.8099 150.302 51.6046 150.302 51.3619C150.302 51.1193 150.386 50.9139 150.554 50.7459C150.722 50.5779 150.927 50.4939 151.17 50.4939C151.403 50.4939 151.599 50.5779 151.758 50.7459C151.926 50.9139 152.01 51.1193 152.01 51.3619C152.01 51.6046 151.926 51.8099 151.758 51.9779C151.599 52.1459 151.403 52.2299 151.17 52.2299ZM151.786 53.4759V61.1479H150.512V53.4759H151.786ZM157.695 53.3359C158.628 53.3359 159.384 53.6206 159.963 54.1899C160.542 54.7499 160.831 55.5619 160.831 56.6259V61.1479H159.571V56.8079C159.571 56.0426 159.38 55.4593 158.997 55.0579C158.614 54.6473 158.092 54.4419 157.429 54.4419C156.757 54.4419 156.22 54.6519 155.819 55.0719C155.427 55.4919 155.231 56.1033 155.231 56.9059V61.1479H153.957V53.4759H155.231V54.5679C155.483 54.1759 155.824 53.8726 156.253 53.6579C156.692 53.4433 157.172 53.3359 157.695 53.3359ZM166.076 53.3499C166.739 53.3499 167.317 53.4946 167.812 53.7839C168.316 54.0733 168.689 54.4373 168.932 54.8759V53.4759H170.22V61.3159C170.22 62.0159 170.071 62.6366 169.772 63.1779C169.473 63.7286 169.044 64.1579 168.484 64.4659C167.933 64.7739 167.289 64.9279 166.552 64.9279C165.544 64.9279 164.704 64.6899 164.032 64.2139C163.36 63.7379 162.963 63.0893 162.842 62.2679H164.102C164.242 62.7346 164.531 63.1079 164.97 63.3879C165.409 63.6773 165.936 63.8219 166.552 63.8219C167.252 63.8219 167.821 63.6026 168.26 63.1639C168.708 62.7253 168.932 62.1093 168.932 61.3159V59.7059C168.68 60.1539 168.307 60.5273 167.812 60.8259C167.317 61.1246 166.739 61.2739 166.076 61.2739C165.395 61.2739 164.774 61.1059 164.214 60.7699C163.663 60.4339 163.229 59.9626 162.912 59.3559C162.595 58.7493 162.436 58.0586 162.436 57.2839C162.436 56.4999 162.595 55.8139 162.912 55.2259C163.229 54.6286 163.663 54.1666 164.214 53.8399C164.774 53.5133 165.395 53.3499 166.076 53.3499ZM168.932 57.2979C168.932 56.7193 168.815 56.2153 168.582 55.7859C168.349 55.3566 168.031 55.0299 167.63 54.8059C167.238 54.5726 166.804 54.4559 166.328 54.4559C165.852 54.4559 165.418 54.5679 165.026 54.7919C164.634 55.0159 164.321 55.3426 164.088 55.7719C163.855 56.2013 163.738 56.7053 163.738 57.2839C163.738 57.8719 163.855 58.3853 164.088 58.8239C164.321 59.2533 164.634 59.5846 165.026 59.8179C165.418 60.0419 165.852 60.1539 166.328 60.1539C166.804 60.1539 167.238 60.0419 167.63 59.8179C168.031 59.5846 168.349 59.2533 168.582 58.8239C168.815 58.3853 168.932 57.8766 168.932 57.2979ZM177.659 54.5259V59.0479C177.659 59.4213 177.739 59.6873 177.897 59.8459C178.056 59.9953 178.331 60.0699 178.723 60.0699H179.661V61.1479H178.513C177.804 61.1479 177.272 60.9846 176.917 60.6579C176.563 60.3313 176.385 59.7946 176.385 59.0479V54.5259H175.391V53.4759H176.385V51.5439H177.659V53.4759H179.661V54.5259H177.659ZM184.551 61.2739C183.832 61.2739 183.179 61.1106 182.591 60.7839C182.012 60.4573 181.555 59.9953 181.219 59.3979C180.892 58.7913 180.729 58.0913 180.729 57.2979C180.729 56.5139 180.897 55.8233 181.233 55.2259C181.578 54.6193 182.045 54.1573 182.633 53.8399C183.221 53.5133 183.879 53.3499 184.607 53.3499C185.335 53.3499 185.993 53.5133 186.581 53.8399C187.169 54.1573 187.631 54.6146 187.967 55.2119C188.312 55.8093 188.485 56.5046 188.485 57.2979C188.485 58.0913 188.308 58.7913 187.953 59.3979C187.608 59.9953 187.136 60.4573 186.539 60.7839C185.942 61.1106 185.279 61.2739 184.551 61.2739ZM184.551 60.1539C185.008 60.1539 185.438 60.0466 185.839 59.8319C186.24 59.6173 186.562 59.2953 186.805 58.8659C187.057 58.4366 187.183 57.9139 187.183 57.2979C187.183 56.6819 187.062 56.1593 186.819 55.7299C186.576 55.3006 186.259 54.9833 185.867 54.7779C185.475 54.5633 185.05 54.4559 184.593 54.4559C184.126 54.4559 183.697 54.5633 183.305 54.7779C182.922 54.9833 182.614 55.3006 182.381 55.7299C182.148 56.1593 182.031 56.6819 182.031 57.2979C182.031 57.9233 182.143 58.4506 182.367 58.8799C182.6 59.3093 182.908 59.6313 183.291 59.8459C183.674 60.0513 184.094 60.1539 184.551 60.1539ZM189.684 57.2839C189.684 56.4999 189.843 55.8139 190.16 55.2259C190.477 54.6286 190.911 54.1666 191.462 53.8399C192.022 53.5133 192.647 53.3499 193.338 53.3499C193.935 53.3499 194.491 53.4899 195.004 53.7699C195.517 54.0406 195.909 54.3999 196.18 54.8479V50.7879H197.468V61.1479H196.18V59.7059C195.928 60.1633 195.555 60.5413 195.06 60.8399C194.565 61.1293 193.987 61.2739 193.324 61.2739C192.643 61.2739 192.022 61.1059 191.462 60.7699C190.911 60.4339 190.477 59.9626 190.16 59.3559C189.843 58.7493 189.684 58.0586 189.684 57.2839ZM196.18 57.2979C196.18 56.7193 196.063 56.2153 195.83 55.7859C195.597 55.3566 195.279 55.0299 194.878 54.8059C194.486 54.5726 194.052 54.4559 193.576 54.4559C193.1 54.4559 192.666 54.5679 192.274 54.7919C191.882 55.0159 191.569 55.3426 191.336 55.7719C191.103 56.2013 190.986 56.7053 190.986 57.2839C190.986 57.8719 191.103 58.3853 191.336 58.8239C191.569 59.2533 191.882 59.5846 192.274 59.8179C192.666 60.0419 193.1 60.1539 193.576 60.1539C194.052 60.1539 194.486 60.0419 194.878 59.8179C195.279 59.5846 195.597 59.2533 195.83 58.8239C196.063 58.3853 196.18 57.8766 196.18 57.2979ZM199.145 57.2839C199.145 56.4999 199.304 55.8139 199.621 55.2259C199.938 54.6286 200.372 54.1666 200.923 53.8399C201.483 53.5133 202.104 53.3499 202.785 53.3499C203.457 53.3499 204.04 53.4946 204.535 53.7839C205.03 54.0733 205.398 54.4373 205.641 54.8759V53.4759H206.929V61.1479H205.641V59.7199C205.389 60.1679 205.011 60.5413 204.507 60.8399C204.012 61.1293 203.434 61.2739 202.771 61.2739C202.09 61.2739 201.474 61.1059 200.923 60.7699C200.372 60.4339 199.938 59.9626 199.621 59.3559C199.304 58.7493 199.145 58.0586 199.145 57.2839ZM205.641 57.2979C205.641 56.7193 205.524 56.2153 205.291 55.7859C205.058 55.3566 204.74 55.0299 204.339 54.8059C203.947 54.5726 203.513 54.4559 203.037 54.4559C202.561 54.4559 202.127 54.5679 201.735 54.7919C201.343 55.0159 201.03 55.3426 200.797 55.7719C200.564 56.2013 200.447 56.7053 200.447 57.2839C200.447 57.8719 200.564 58.3853 200.797 58.8239C201.03 59.2533 201.343 59.5846 201.735 59.8179C202.127 60.0419 202.561 60.1539 203.037 60.1539C203.513 60.1539 203.947 60.0419 204.339 59.8179C204.74 59.5846 205.058 59.2533 205.291 58.8239C205.524 58.3853 205.641 57.8766 205.641 57.2979ZM215.69 53.4759L211.07 64.7599H209.754L211.266 61.0639L208.172 53.4759H209.586L211.994 59.6919L214.374 53.4759H215.69ZM218.623 51.3899L218.469 58.3899H217.405L217.251 51.3899H218.623ZM217.993 61.2319C217.75 61.2319 217.545 61.1479 217.377 60.9799C217.209 60.8119 217.125 60.6066 217.125 60.3639C217.125 60.1213 217.209 59.9159 217.377 59.7479C217.545 59.5799 217.75 59.4959 217.993 59.4959C218.226 59.4959 218.422 59.5799 218.581 59.7479C218.749 59.9159 218.833 60.1213 218.833 60.3639C218.833 60.6066 218.749 60.8119 218.581 60.9799C218.422 61.1479 218.226 61.2319 217.993 61.2319Z" fill="white"/>
</svg>
