<svg width="13" height="12" viewBox="0 0 13 12" fill="none" xmlns="http://www.w3.org/2000/svg">
<path d="M8.75242 0.725983C8.1894 0.73474 7.63865 0.891909 7.1558 1.18162C6.67295 1.47133 6.2751 1.88332 6.00242 2.37598C5.72974 1.88332 5.33189 1.47133 4.84904 1.18162C4.36619 0.891909 3.81545 0.73474 3.25242 0.725983C2.35489 0.764978 1.50927 1.15761 0.900312 1.8181C0.29135 2.47859 -0.0314547 3.35325 0.00242055 4.25098C0.00242055 6.52448 2.39542 9.00748 4.40242 10.691C4.85053 11.0675 5.4171 11.274 6.00242 11.274C6.58774 11.274 7.15431 11.0675 7.60242 10.691C9.60942 9.00748 12.0024 6.52448 12.0024 4.25098C12.0363 3.35325 11.7135 2.47859 11.1045 1.8181C10.4956 1.15761 9.64995 0.764978 8.75242 0.725983Z" fill="#312E33"/>
</svg>
