<svg width="20" height="20" viewBox="0 0 20 20" fill="none" xmlns="http://www.w3.org/2000/svg">
<path d="M1.9222 18.1274H5.25029C6.02294 18.1274 6.68678 17.6661 6.99184 17.0066C7.18122 17.0191 7.61131 17.1872 8.25894 17.9174C9.90612 19.7739 11.0269 19.939 13.8105 19.939L14.3081 19.9402C14.4769 19.9415 14.6419 19.9421 14.8057 19.9421C16.5073 19.9421 17.9444 19.8646 18.6333 18.9138C18.9983 18.4099 19.0764 17.7617 18.8683 16.9409C19.284 16.4452 19.956 15.3775 19.5828 13.9673C19.9722 13.3153 20.2854 12.1457 19.5803 10.8742C19.7278 10.3798 19.9316 9.40145 19.5671 8.56255C19.3452 8.05059 18.9396 7.66741 18.3951 7.45549C17.6274 7.15667 16.9054 7.21357 16.2684 7.26484C15.2989 7.34235 14.8132 7.34484 14.3162 6.5772C14.0018 6.0921 13.7868 5.25447 13.5598 4.36745C13.0347 2.31957 12.314 -0.480307 9.51225 0.147325L9.38596 0.17606L9.28094 0.252958C9.16343 0.338591 8.14637 1.14998 8.4458 3.20222C8.71837 5.06941 8.132 6.66035 7.04992 7.22169C6.77988 6.48594 6.07914 5.95647 5.25086 5.95647H1.9222C0.862653 5.95651 0 6.81916 0 7.87937V16.2046C0 17.2648 0.862653 18.1274 1.9222 18.1274ZM9.68233 3.02165C9.53482 2.00961 9.81861 1.50949 9.95363 1.33573C11.232 1.14006 11.7114 2.19214 12.3484 4.67884C12.6016 5.66712 12.841 6.60104 13.2673 7.25802C14.1919 8.6839 15.3971 8.58888 16.3679 8.51137C16.9205 8.46822 17.4418 8.42573 17.9413 8.62075C18.1769 8.71263 18.3289 8.85206 18.4201 9.05896C18.6558 9.59782 18.4233 10.4411 18.3145 10.718L18.1932 11.0224L18.3745 11.2962C19.164 12.4833 18.4945 13.3653 18.4201 13.4566L18.182 13.7341L18.3082 14.0779C18.7821 15.3669 17.7976 16.2677 17.7582 16.3027L17.4437 16.5765L17.575 16.9722C17.7075 17.3704 17.8225 17.903 17.6212 18.1818C17.243 18.7044 15.6865 18.6975 14.3138 18.6912L13.8105 18.69C11.1794 18.69 10.4924 18.5518 9.19408 17.0884C8.3658 16.1539 7.6838 15.8332 7.1731 15.7682V8.52259C9.00535 7.9081 10.068 5.6621 9.68233 3.02165ZM1.2502 7.87937C1.2502 7.50867 1.55151 7.20737 1.9222 7.20737H5.25029C5.62098 7.20737 5.92229 7.50867 5.92229 7.87937V16.2046C5.92229 16.5759 5.62098 16.8772 5.25029 16.8772H1.9222C1.55151 16.8772 1.2502 16.5759 1.2502 16.2046V7.87937Z" fill="#312E33"/>
</svg>
