<svg width="20" height="20" viewBox="0 0 20 20" fill="none" xmlns="http://www.w3.org/2000/svg">
<g clip-path="url(#clip0_699_946)">
<path d="M16.2496 11.3102L9.9996 17.5002L3.7496 11.3102M3.7496 11.3102C3.33735 10.909 3.01264 10.4269 2.79589 9.89405C2.57914 9.36124 2.47507 8.78931 2.49021 8.2143C2.50536 7.63928 2.6394 7.07363 2.8839 6.55297C3.12839 6.0323 3.47805 5.5679 3.91084 5.189C4.34363 4.81011 4.85019 4.52493 5.39861 4.35142C5.94703 4.17792 6.52544 4.11984 7.09741 4.18086C7.66938 4.24187 8.22252 4.42065 8.722 4.70594C9.22148 4.99123 9.65647 5.37685 9.9996 5.83852C10.3442 5.38021 10.7797 4.99796 11.2788 4.71569C11.778 4.43343 12.33 4.25723 12.9004 4.19812C13.4707 4.13901 14.0472 4.19827 14.5936 4.37218C15.14 4.54609 15.6446 4.83092 16.0759 5.20882C16.5072 5.58673 16.8558 6.04959 17.0999 6.56843C17.3441 7.08727 17.4786 7.65092 17.4949 8.22411C17.5112 8.7973 17.409 9.36768 17.1947 9.89956C16.9804 10.4314 16.6587 10.9134 16.2496 11.3152" stroke="#6F6D70" stroke-width="1.5" stroke-linecap="round" stroke-linejoin="round"/>
</g>
<defs>
<clipPath id="clip0_699_946">
<rect width="20" height="20" fill="white"/>
</clipPath>
</defs>
</svg>
