<svg width="20" height="21" viewBox="0 0 20 21" fill="none" xmlns="http://www.w3.org/2000/svg">
<g clip-path="url(#clip0_654_1198)">
<path d="M17.4998 2.64795L12.0831 17.6479C12.0466 17.7277 11.9879 17.7953 11.914 17.8427C11.8402 17.8901 11.7542 17.9153 11.6665 17.9153C11.5787 17.9153 11.4928 17.8901 11.4189 17.8427C11.3451 17.7953 11.2864 17.7277 11.2498 17.6479L8.33315 11.8146L2.49981 8.89795C2.42003 8.86139 2.35242 8.80269 2.30502 8.72883C2.25762 8.65496 2.23242 8.56905 2.23242 8.48128C2.23242 8.39352 2.25762 8.3076 2.30502 8.23374C2.35242 8.15988 2.42003 8.10118 2.49981 8.06462L17.4998 2.64795Z" stroke="white" stroke-width="1.5" stroke-linecap="round" stroke-linejoin="round"/>
</g>
<defs>
<clipPath id="clip0_654_1198">
<rect width="20" height="20" fill="white" transform="translate(0 0.147949)"/>
</clipPath>
</defs>
</svg>
