<?xml version="1.0" encoding="utf-8"?>
<!-- Generator: Adobe Illustrator 22.1.0, SVG Export Plug-In . SVG Version: 6.00 Build 0)  -->
<svg version="1.1" id="Layer_1" xmlns="http://www.w3.org/2000/svg" xmlns:xlink="http://www.w3.org/1999/xlink" x="0px" y="0px"
	 viewBox="0 0 612 792" style="enable-background:new 0 0 612 792;" xml:space="preserve">
<g>
	<path d="M342,399c-5-1.6-9.6-4.4-15.3-4c-4.6,0.3-7,1.8-6.7,6.9c0.3,6.5,0,13,0.1,19.4c0.1,3.9-1.8,4.8-5.3,4.8
		c-3.3,0-5.9-0.3-5.9-4.7c0.1-19.1-0.2-38.2,0.2-57.4c0.3-12.1,7.7-21,19.1-24.7c1.3-0.4,2.5-0.9,3.7-1.4c3.3,0,8-1.3,9.6,0.4
		c1.7,1.7,0.4,6.3,0.4,9.6c0,0.3,0,0.7,0,1c-1,0-2,0-3,0c-12.7,0-18.9,6.1-19,18.9c0,4.3,0.1,8.6,0,12.9c-0.1,3.4,0.8,4.8,4.5,4.3
		c6-0.8,11.9,0.4,17.4,2.9C342,391.7,342,395.3,342,399z"/>
	<path d="M273,388c7.6-3.3,15.3-4.1,23.3-1.7c4.1,1.2,6.5,7.2,4.4,10.9c-0.6,1.1-1.6,1.4-2.5,0.8c-8.6-5-16.9-2.9-25.2,1
		C273,395.3,273,391.7,273,388z"/>
	<path d="M314.1,455.1c-10.8,0.2-19.1-3.8-25.9-11.2c-3.6-4,0.7-5,2.3-7c1.7-2.2,3.4-2.6,5.6-0.2c10.6,11.4,24.2,11.4,34.2,0.1
		c2.2-2.5,3.8-2.2,5.7-0.2c2,2.2,5.6,3.8,2.2,7.7C331.6,452,323.4,455.4,314.1,455.1z"/>
</g>
</svg>
