<svg width="20" height="21" viewBox="0 0 20 21" fill="none" xmlns="http://www.w3.org/2000/svg">
<g clip-path="url(#clip0_654_1209)">
<path d="M4.16667 3.4812H7.5L9.16667 7.64787L7.08333 8.89787C7.9758 10.7075 9.44039 12.1721 11.25 13.0645L12.5 10.9812L16.6667 12.6479V15.9812C16.6667 16.4232 16.4911 16.8472 16.1785 17.1597C15.866 17.4723 15.442 17.6479 15 17.6479C11.7494 17.4503 8.68346 16.0699 6.38069 13.7672C4.07792 11.4644 2.69754 8.39848 2.5 5.14787C2.5 4.70584 2.67559 4.28192 2.98816 3.96936C3.30072 3.6568 3.72464 3.4812 4.16667 3.4812" stroke="white" stroke-width="1.5" stroke-linecap="round" stroke-linejoin="round"/>
</g>
<defs>
<clipPath id="clip0_654_1209">
<rect width="20" height="20" fill="white" transform="translate(0 0.147949)"/>
</clipPath>
</defs>
</svg>
