<svg width="80" height="80" viewBox="0 0 80 80" fill="none" xmlns="http://www.w3.org/2000/svg">
<path fill-rule="evenodd" clip-rule="evenodd" d="M37.9488 6.15384C20.3856 6.15384 6.15384 20.3742 6.15384 37.9084C6.15384 55.4428 20.3856 69.6632 37.9488 69.6632C46.7108 69.6632 54.6396 66.1272 60.3932 60.4C66.1732 54.6468 69.7436 46.6968 69.7436 37.9084C69.7436 20.3742 55.512 6.15384 37.9488 6.15384ZM0 37.9084C0 16.9688 16.9936 0 37.9488 0C58.904 0 75.8976 16.9688 75.8976 37.9084C75.8976 47.29 72.4828 55.8788 66.8332 62.496L79.0976 74.746C80.3 75.9472 80.3008 77.8952 79.1 79.0976C77.8992 80.3 75.9508 80.3008 74.7488 79.1L62.4728 66.8384C55.86 72.4372 47.2968 75.8168 37.9488 75.8168C16.9936 75.8168 0 58.848 0 37.9084Z" fill="#6F6D70"/>
</svg>
