<svg width="20" height="21" viewBox="0 0 20 21" fill="none" xmlns="http://www.w3.org/2000/svg">
<g clip-path="url(#clip0_654_1217)">
<path d="M18.3337 3.48963C17.5003 3.89796 16.6837 4.06379 15.8337 4.31463C14.8995 3.26046 13.5145 3.20213 12.1837 3.70046C10.8528 4.19879 9.98116 5.41713 10.0003 6.81463V7.64796C7.29616 7.71713 4.88783 6.48546 3.33366 4.31463C3.33366 4.31463 -0.151341 10.5088 6.66699 13.4813C5.10699 14.5205 3.55116 15.2213 1.66699 15.148C4.42366 16.6505 7.42783 17.1671 10.0287 16.4121C13.012 15.5455 15.4637 13.3096 16.4045 9.96046C16.6851 8.94185 16.8245 7.88951 16.8187 6.83296C16.817 6.62546 18.077 4.52296 18.3337 3.48879V3.48963Z" stroke="white" stroke-width="1.5" stroke-linecap="round" stroke-linejoin="round"/>
</g>
<defs>
<clipPath id="clip0_654_1217">
<rect width="20" height="20" fill="white" transform="translate(0 0.147949)"/>
</clipPath>
</defs>
</svg>
